# Blender v3.5.0 OBJ File: ''
# www.blender.org
mtllib Cursor.mtl
o 立方体
v 1.000000 0.091890 -0.996700
v 1.000000 0.305021 -0.996700
v 1.000000 0.091890 1.003299
v 1.000000 0.305021 1.003299
v -1.000000 0.091890 -0.996700
v -1.000000 0.305021 -0.996700
v -1.000000 0.091890 1.003299
v -1.000000 0.305021 1.003299
v -0.680961 0.091890 0.680961
v 0.680961 0.091890 -0.680961
v 0.680961 0.091890 0.680961
v -0.680961 0.091890 -0.680961
v 0.680961 0.305021 0.680961
v 0.680961 0.305021 -0.680961
v -0.680961 0.305021 -0.680961
v -0.680961 0.305021 0.680961
v -0.309058 0.305021 1.003299
v 0.309058 0.305021 1.003299
v 0.309058 0.091890 1.003299
v -0.309058 0.091890 1.003299
v 0.309058 0.091890 0.680961
v -0.309058 0.091890 0.680961
v -0.309058 0.305021 0.680961
v 0.309058 0.305021 0.680961
v 0.309058 0.305021 -0.996700
v -0.309058 0.305021 -0.996700
v -0.309058 0.091890 -0.996700
v 0.309058 0.091890 -0.996700
v 0.309058 0.091890 -0.680961
v -0.309058 0.091890 -0.680961
v 0.309058 0.305021 -0.680961
v -0.309058 0.305021 -0.680961
v -1.000000 0.305021 -0.324822
v -1.000000 0.305021 0.293294
v -1.000000 0.091890 0.293294
v -1.000000 0.091890 -0.324822
v -0.680961 0.091890 -0.324822
v -0.680961 0.091890 0.293294
v -0.680961 0.305021 -0.324822
v -0.680961 0.305021 0.293294
v 1.000000 0.305021 0.293294
v 1.000000 0.305021 -0.324822
v 1.000000 0.091890 -0.324822
v 1.000000 0.091890 0.293294
v 0.680961 0.091890 -0.324822
v 0.680961 0.091890 0.293294
v 0.680961 0.305021 -0.324822
v 0.680961 0.305021 0.293294
vt 0.128107 0.000000
vt 0.256215 0.360863
vt 0.128107 0.360863
vt 0.367123 0.721725
vt 0.245896 0.360863
vt 0.367123 0.360863
vt 0.505550 0.000000
vt 0.630217 0.360863
vt 0.505550 0.360863
vt 0.380882 0.360863
vt 0.256215 0.000000
vt 0.380882 0.000000
vt 0.124668 0.721725
vt 0.245896 0.360863
vt 0.245896 0.721725
vt 0.128107 0.360863
vt 0.000000 0.000000
vt 0.128107 0.000000
vt 0.380882 0.360863
vt 0.505550 0.000000
vt 0.505550 0.360863
vt 0.000000 0.360863
vt 0.124668 0.360863
vt 0.689660 0.788828
vt 0.625402 0.846393
vt 0.625402 0.788828
vt 0.431567 0.779885
vt 0.374003 0.849833
vt 0.374003 0.721725
vt 0.803599 0.788828
vt 0.867858 0.846393
vt 0.746630 0.846393
vt 0.067103 0.779885
vt 0.000000 0.721725
vt 0.124668 0.721725
vt 0.746630 0.721725
vt 0.746630 0.846393
vt 0.746630 0.721725
vt 0.803599 0.721725
vt 0.568433 0.788828
vt 0.625402 0.721725
vt 0.625402 0.846393
vt 0.561143 0.913496
vt 0.504174 0.846393
vt 0.561143 0.846393
vt 0.504174 0.846393
vt 0.504174 0.788828
vt 0.306900 0.779885
vt 0.249335 0.849833
vt 0.249335 0.721725
vt 0.625402 0.971061
vt 0.625402 0.913496
vt 0.191771 0.779885
vt 0.124668 0.721725
vt 0.249335 0.721725
vt 0.437071 0.721725
vt 0.367124 0.360863
vt 0.437071 0.360863
vt 0.705483 0.360863
vt 0.769742 0.721725
vt 0.705483 0.721725
vt 0.504174 0.721725
vt 0.437071 0.360863
vt 0.504174 0.360863
vt 0.504174 0.360863
vt 0.571277 0.721725
vt 0.504174 0.721725
vt 0.764423 0.360863
vt 0.700165 0.000000
vt 0.764423 0.000000
vt 0.630217 0.360863
vt 0.700165 0.000000
vt 0.700165 0.360863
vt 0.638380 0.721725
vt 0.571277 0.360863
vt 0.638380 0.360863
vt 0.638380 0.721725
vt 0.705483 0.360863
vt 0.705483 0.721725
vt 0.827902 0.721725
vt 0.769742 0.360863
vt 0.827902 0.360863
vt 0.822583 0.000000
vt 0.764423 0.360863
vt 0.764423 0.000000
vt 0.937712 0.000000
vt 0.994682 0.360863
vt 0.937712 0.360863
vt 1.000000 0.360863
vt 0.943031 0.721725
vt 0.943031 0.360863
vt 0.880148 0.000000
vt 0.822583 0.360863
vt 0.822583 0.000000
vt 0.885466 0.360863
vt 0.943031 0.721725
vt 0.885466 0.721725
vt 0.827902 0.360863
vt 0.885466 0.721725
vt 0.827902 0.721725
vt 0.880148 0.360863
vt 0.937712 0.000000
vt 0.937712 0.360863
vt 0.256215 0.000000
vt 0.245896 0.721725
vt 0.630217 0.000000
vt 0.256215 0.360863
vt 0.000000 0.360863
vt 0.380882 0.000000
vt 0.000000 0.721725
vt 0.431567 0.849833
vt 0.498670 0.721725
vt 0.498670 0.779885
vt 0.867858 0.788828
vt 0.000000 0.779885
vt 0.124668 0.849833
vt 0.067103 0.849833
vt 0.689660 0.721725
vt 0.568433 0.721725
vt 0.504174 0.971061
vt 0.306900 0.849833
vt 0.374003 0.721725
vt 0.374003 0.779885
vt 0.249335 0.849833
vt 0.191771 0.849833
vt 0.124668 0.779885
vt 0.367123 0.721725
vt 0.769742 0.360863
vt 0.437071 0.721725
vt 0.571277 0.360863
vt 0.700165 0.360863
vt 0.630217 0.000000
vt 0.571277 0.721725
vt 0.638380 0.360863
vt 0.769742 0.721725
vt 0.822583 0.360863
vt 0.994682 0.000000
vt 1.000000 0.721725
vt 0.880148 0.360863
vt 0.943031 0.360863
vt 0.885466 0.360863
vt 0.880148 0.000000
vn 1.0000 0.0000 0.0000
vn 0.0000 0.0000 1.0000
vn -1.0000 0.0000 0.0000
vn 0.0000 0.0000 -1.0000
vn 0.0000 -1.0000 0.0000
vn 0.0000 1.0000 0.0000
usemtl マテリアル
s off
f 3/1/1 41/2/1 4/3/1
f 2/4/1 43/5/1 1/6/1
f 7/7/2 17/8/2 8/9/2
f 4/10/2 19/11/2 3/12/2
f 6/13/3 36/14/3 33/15/3
f 8/16/3 35/17/3 7/18/3
f 2/19/4 28/20/4 25/21/4
f 6/13/4 27/22/4 5/23/4
f 10/24/5 43/25/5 45/26/5
f 11/27/5 44/28/5 3/29/5
f 12/30/5 36/31/5 5/32/5
f 9/33/5 20/34/5 7/35/5
f 10/24/5 28/36/5 1/37/5
f 12/30/5 27/38/5 30/39/5
f 15/40/6 26/41/6 6/42/6
f 14/43/6 25/44/6 31/45/6
f 15/40/6 33/46/6 39/47/6
f 16/48/6 34/49/6 8/50/6
f 42/51/6 14/43/6 47/52/6
f 13/53/6 18/54/6 4/55/6
f 13/56/3 46/57/3 11/58/3
f 10/59/3 47/60/3 14/61/3
f 16/62/4 22/63/4 9/64/4
f 11/65/4 24/66/4 13/67/4
f 15/68/1 37/69/1 12/70/1
f 16/71/1 38/72/1 40/73/1
f 14/74/2 29/75/2 10/76/2
f 15/77/2 30/78/2 32/79/2
f 18/80/3 21/81/3 19/82/3
f 22/83/1 17/84/1 20/85/1
f 28/86/3 31/87/3 25/88/3
f 27/89/1 32/90/1 30/91/1
f 35/92/4 40/93/4 38/94/4
f 36/95/2 39/96/2 33/97/2
f 44/98/4 48/99/4 41/100/4
f 47/101/2 43/102/2 42/103/2
f 3/1/1 44/104/1 41/2/1
f 2/4/1 42/105/1 43/5/1
f 7/7/2 20/106/2 17/8/2
f 4/10/2 18/107/2 19/11/2
f 6/13/3 5/23/3 36/14/3
f 8/16/3 34/108/3 35/17/3
f 2/19/4 1/109/4 28/20/4
f 6/13/4 26/110/4 27/22/4
f 10/24/5 1/37/5 43/25/5
f 11/27/5 46/111/5 44/28/5
f 3/29/5 19/112/5 11/27/5
f 19/112/5 21/113/5 11/27/5
f 12/30/5 37/114/5 36/31/5
f 9/33/5 22/115/5 20/34/5
f 7/35/5 35/116/5 9/33/5
f 35/116/5 38/117/5 9/33/5
f 10/24/5 29/118/5 28/36/5
f 12/30/5 5/32/5 27/38/5
f 15/40/6 32/119/6 26/41/6
f 14/43/6 2/120/6 25/44/6
f 15/40/6 6/42/6 33/46/6
f 16/48/6 40/121/6 34/49/6
f 8/50/6 17/122/6 16/48/6
f 17/122/6 23/123/6 16/48/6
f 42/51/6 2/120/6 14/43/6
f 41/124/6 48/125/6 13/53/6
f 13/53/6 24/126/6 18/54/6
f 4/55/6 41/124/6 13/53/6
f 13/56/3 48/127/3 46/57/3
f 10/59/3 45/128/3 47/60/3
f 16/62/4 23/129/4 22/63/4
f 11/65/4 21/130/4 24/66/4
f 15/68/1 39/131/1 37/69/1
f 16/71/1 9/132/1 38/72/1
f 14/74/2 31/133/2 29/75/2
f 15/77/2 12/134/2 30/78/2
f 18/80/3 24/135/3 21/81/3
f 22/83/1 23/136/1 17/84/1
f 28/86/3 29/137/3 31/87/3
f 27/89/1 26/138/1 32/90/1
f 35/92/4 34/139/4 40/93/4
f 36/95/2 37/140/2 39/96/2
f 44/98/4 46/141/4 48/99/4
f 47/101/2 45/142/2 43/102/2
