# Blender v3.5.0 OBJ File: ''
# www.blender.org
mtllib player.mtl
o Cube
v -0.739546 2.066324 0.739546
v 0.000000 0.066324 0.000000
v -0.739546 2.066324 -0.739546
v 0.739546 2.066324 0.739546
v 0.739546 2.066324 -0.739546
v 0.000000 2.502396 0.000000
vt 0.309583 0.827674
vt 0.309583 0.500000
vt 0.401644 0.663837
vt 0.309583 0.000000
vt 0.000000 0.392630
vt 0.619166 0.000000
vt 0.619166 0.500000
vt 0.309583 0.392630
vt 0.928750 0.000000
vt 0.928750 0.500000
vt 0.619166 0.392630
vt 0.309583 0.500000
vt 0.309583 1.000000
vt 0.000000 0.892630
vt 0.591842 0.827674
vt 0.591842 0.500000
vn 0.0000 0.8614 -0.5079
vn 0.0000 -0.3468 -0.9379
vn 0.9379 -0.3468 0.0000
vn -0.9379 -0.3468 0.0000
vn 0.0000 -0.3468 0.9379
vn 0.5079 0.8614 0.0000
vn 0.0000 0.8614 0.5079
vn -0.5079 0.8614 0.0000
usemtl Material
s off
f 5/1/1 3/2/1 6/3/1
f 2/4/2 3/2/2 5/5/2
f 2/6/3 5/7/3 4/8/3
f 2/9/4 1/10/4 3/11/4
f 2/12/5 4/13/5 1/14/5
f 4/15/6 5/1/6 6/3/6
f 1/16/7 4/15/7 6/3/7
f 3/2/8 1/16/8 6/3/8
